{"title":"Formula 1 2011 Race 17 India Practice 2","uid":6778799,"size":1227298669,"categoryP":"video","categoryS":"tv_shows","magnet":"?xt=urn:btih:a92fff2a6b9603d459a855442905e2a8b55d9b27&amp;dn=Formula+1+2011+Race+17+India+Practice+2&amp;tr=udp%3A%2F%2Ftracker.openbittorrent.com%3A80&amp;tr=udp%3A%2F%2Fopen.demonii.com%3A1337&amp;tr=udp%3A%2F%2Ftracker.coppersurfer.tk%3A6969&amp;tr=udp%3A%2F%2Fexodus.desync.com%3A6969","seeders":1,"leechers":0,"uploader":"jorrell0733","files":3,"time":1319823203,"description":"[img]http://www.khaolaknews.com/wp-content/uploads/2011/03/f1.jpg[/img]\n\nFormula One 2011 Season\n\nRace 17: Indian Grand Prix, India.\n\nRecord Source: BBC One Red Button Stream\nOriginal Format: MPEG TS Stream\nDate: Friday 28th October 2011\nTime: 09:30 to 11:00\n\nIndia Grand Prix Practice Session 2\n\nFormula 1 Welcomes The Brand New Greater Noida Circuit from India!!\n\nBBC F1 coverage of the 2nd Practice Session for the 17th Race meeting of the \n2011 Formula One Season, The Indian Grand Prix from the Greater Noida Curcuit\n\n**SPECIAL NOTE** For all my followers of my torrents, I have had many requests\nasking if its still possible to continue providing these torrent for 2012 when \nthe F1 coverage moves to SKY SPORTS. \n\nI am pleased to announce that i WILL NOW be continuing to upload the \nFormula 1 for 2012 as I have invested in new Satellite Equipment &amp; Motorised Dish\nwhich will enable me to provide the 12 Races the BBC has agreed in its contract \nto cover for 2012, in Full HD.\n\nFor the remaining Races, I will be uploading SKY SPORTS coverage of every\nPractice Sessions, Qualifying &amp; Race also in Full HD.. (Im just hoping SKY\nkeep to their promise and keep the commercials out of their coverage!)\n\nLooking Forward To 2012! \n\nEnjoy, TheBlackKnight\n\n\n\nComplete name                    : F1 2011 Race 17 India Practice 2.mkv\nFormat                           : AVC\nFormat/Info                      : Advanced Video Codec\nFormat profile                   : &lt;a class=&quot;__cf_email__&quot; href=&quot;/cdn-cgi/l/email-protection&quot; data-cfemail=&quot;521f333b3c121e617c62&quot;&gt;[email&amp;#160;protected]&lt;/a&gt;&lt;script cf-hash='f9e31' type=&quot;text/javascript&quot;&gt;\n/* &lt;![CDATA[ */!function(){try{var t=&quot;currentScript&quot;in document?document.currentScript:function(){for(var t=document.getElementsByTagName(&quot;script&quot;),e=t.length;e--;)if(t[e].getAttribute(&quot;cf-hash&quot;))return t[e]}();if(t&amp;&amp;t.previousSibling){var e,r,n,i,c=t.previousSibling,a=c.getAttribute(&quot;data-cfemail&quot;);if(a){for(e=&quot;&quot;,r=parseInt(a.substr(0,2),16),n=2;a.length-n;n+=2)i=parseInt(a.substr(n,2),16)^r,e+=String.fromCharCode(i);e=document.createTextNode(e),c.parentNode.replaceChild(e,c)}}}catch(u){}}();/* ]]&gt; */&lt;/script&gt;\nFormat settings, CABAC           : Yes\nFormat settings, ReFrames        : 4 frames\nCodec ID                         : V_MPEG4/ISO/AVC\nDuration                         : 1h 40mn\nBit rate                         : 1 500 Kbps\nWidth                            : 544 pixels\nHeight                           : 576 pixels\nDisplay aspect ratio             : 16:9\nFrame rate mode                  : Variable\nFrame rate                       : 25.000 fps\nColor space                      : YUV\nChroma subsampling               : 4:2:0\nBit depth                        : 8 bits\nScan type                        : Progressive\nBits/(Pixel*Frame)               : 0.191\nStream size                      : 1.03 GiB (90%)\nWriting library                  : x264 core 112\nEncoding settings                : cabac=1 / ref=2 / deblock=1:0:0 / analyse=0x1:0x111 / me=hex / subme=6 / psy=1 / \n\npsy_rd=1.00:0.00 / mixed_ref=0 / me_range=16 / chroma_me=1 / trellis=0 / 8x8dct=0 / cqm=0 / deadzone=21,11 / fast_pskip=1 / \n\nchroma_qp_offset=-2 / threads=3 / sliced_threads=0 / nr=0 / decimate=1 / interlaced=0 / constrained_intra=0 / bframes=2 / \n\nb_pyramid=2 / b_adapt=1 / b_bias=0 / direct=1 / weightb=0 / open_gop=0 / weightp=2 / keyint=250 / keyint_min=25 / scenecut=40 \n\n/ intra_refresh=0 / rc_lookahead=40 / rc=abr / mbtree=1 / bitrate=1500 / ratetol=1.0 / qcomp=0.60 / qpmin=3 / qpmax=51 / \n\nqpstep=4 / ip_ratio=1.40 / aq=1:1.00\nLanguage                         : English\nColor primaries                  : BT.601-6 525, BT.1358 525, BT.1700 NTSC, SMPTE 170M\nTransfer characteristics         : BT.709-5, BT.1361\nMatrix coefficients              : BT.601-6 525, BT.1358 525, BT.1700 NTSC, SMPTE 170M\n\nAudio\nID                               : 2\nFormat                           : AC-3\nFormat/Info                      : Audio Coding 3\nMode extension                   : CM (complete main)\nCodec ID                         : A_AC3\nDuration                         : 1h 40mn\nBit rate mode                    : Constant\nBit rate                         : 128 Kbps\nChannel(s)                       : 2 channels\nChannel positions                : Front: L R\nSampling rate                    : 48.0 KHz\nBit depth                        : 16 bits\nCompression mode                 : Lossy\nStream size                      : 91.7 MiB (8%)\nLanguage                         : English\n\n\n\n\n\n","torrent":{"xt":"urn:btih:a92fff2a6b9603d459a855442905e2a8b55d9b27","amp;dn":"Formula+1+2011+Race+17+India+Practice+2","amp;tr":["udp%3A%2F%2Ftracker.openbittorrent.com%3A80","udp%3A%2F%2Fopen.demonii.com%3A1337","udp%3A%2F%2Ftracker.coppersurfer.tk%3A6969","udp%3A%2F%2Fexodus.desync.com%3A6969"],"infoHash":"a92fff2a6b9603d459a855442905e2a8b55d9b27","infoHashBuffer":{"type":"Buffer","data":[169,47,255,42,107,150,3,212,89,168,85,68,41,5,226,168,181,93,155,39]},"announce":[],"urlList":[]}}